<svg xmlns="http://www.w3.org/2000/svg" viewBox="0 0 128 128" role="img" aria-label="AO Labs icon"><defs><filter id="depth" x="-40%" y="-40%" width="180%" height="180%"><feDropShadow dx="0" dy="8" stdDeviation="5" flood-color="#2b2118" flood-opacity=".22"/></filter><linearGradient id="soft" x1="18" x2="110" y1="18" y2="112" gradientUnits="userSpaceOnUse"><stop stop-color="#fffaf2"/><stop offset="1" stop-color="#e5d8ca"/></linearGradient><linearGradient id="warm" x1="20" x2="108" y1="20" y2="108" gradientUnits="userSpaceOnUse"><stop stop-color="#ddaaa2"/><stop offset="1" stop-color="#ad715e"/></linearGradient><linearGradient id="cool" x1="20" x2="108" y1="20" y2="108" gradientUnits="userSpaceOnUse"><stop stop-color="#7fa9a2"/><stop offset="1" stop-color="#456f77"/></linearGradient></defs><g filter="url(#depth)"><path d="M24 80c11-30 28-45 48-45 18 0 31 11 31 28 0 20-17 34-39 34-15 0-27-6-32-17z" fill="#d7a2a1"/><path d="M38 76c7-17 18-26 33-26 11 0 19 6 19 15 0 12-11 19-25 19-11 0-21-3-27-8z" fill="#fff7ea"/><path d="M68 35c15-7 30-5 39 6 11 13 5 33-13 45-14 10-34 12-49 5 25-1 44-13 47-27 2-11-7-18-24-17z" fill="#b87963"/><circle cx="92" cy="42" r="8" fill="#a7833c"/></g></svg>