<svg xmlns="http://www.w3.org/2000/svg" viewBox="0 0 128 128" role="img" aria-label="Curtis icon"><defs><filter id="d" x="-35%" y="-35%" width="170%" height="170%"><feDropShadow dx="0" dy="10" stdDeviation="6" flood-color="#2b211d" flood-opacity=".18"/><feDropShadow dx="0" dy="1" stdDeviation="1" flood-color="#fffaf4" flood-opacity=".48"/></filter><linearGradient id="field" x1="18" y1="14" x2="108" y2="116"><stop stop-color="#34333b"/><stop offset="1" stop-color="#090b11"/></linearGradient><linearGradient id="cream" x1="20" y1="16" x2="108" y2="114"><stop stop-color="#fff8ef"/><stop offset="1" stop-color="#e4d7c6"/></linearGradient><linearGradient id="blue" x1="24" y1="24" x2="104" y2="98"><stop stop-color="#7ea0b7"/><stop offset="1" stop-color="#2d5573"/></linearGradient><linearGradient id="red" x1="52" y1="22" x2="84" y2="108"><stop stop-color="#c7776a"/><stop offset="1" stop-color="#8f3f39"/></linearGradient><linearGradient id="gold" x1="62" y1="70" x2="92" y2="108"><stop stop-color="#edc766"/><stop offset="1" stop-color="#94621e"/></linearGradient></defs><g filter="url(#d)"><rect x="19" y="18" width="90" height="92" rx="20" fill="url(#field)"/><path d="M39 45h50M34 58h58M34 70h58M39 83h43" fill="none" stroke="url(#blue)" stroke-width="7" stroke-linecap="round"/><path d="M86 42c-6-6-14-9-24-9-18 0-31 13-31 31s13 31 31 31c10 0 18-3 24-10" fill="none" stroke="url(#cream)" stroke-width="16" stroke-linecap="round" stroke-linejoin="round"/><path d="M84 35 71 96" fill="none" stroke="url(#red)" stroke-width="8" stroke-linecap="round"/><circle cx="76" cy="96" r="6" fill="url(#gold)"/></g></svg>
