<svg xmlns="http://www.w3.org/2000/svg" viewBox="0 0 128 128" role="img" aria-label="Nerve icon"><defs><filter id="depth" x="-45%" y="-45%" width="190%" height="190%"><feDropShadow dx="0" dy="8" stdDeviation="5" flood-color="#221a16" flood-opacity=".22"/><feDropShadow dx="0" dy="1" stdDeviation="1" flood-color="#fff8ef" flood-opacity=".34"/></filter><linearGradient id="paper" x1="20" y1="14" x2="108" y2="116" gradientUnits="userSpaceOnUse"><stop stop-color="#fff8ee"/><stop offset="1" stop-color="#dfd1bf"/></linearGradient><linearGradient id="ink" x1="18" y1="14" x2="108" y2="116" gradientUnits="userSpaceOnUse"><stop stop-color="#31313b"/><stop offset="1" stop-color="#080911"/></linearGradient><linearGradient id="coral" x1="18" y1="16" x2="110" y2="114" gradientUnits="userSpaceOnUse"><stop stop-color="#eda891"/><stop offset=".55" stop-color="#ce735b"/><stop offset="1" stop-color="#884a3c"/></linearGradient><linearGradient id="rose" x1="18" y1="16" x2="108" y2="116" gradientUnits="userSpaceOnUse"><stop stop-color="#e4a4ad"/><stop offset=".55" stop-color="#ba6c84"/><stop offset="1" stop-color="#6f425b"/></linearGradient><linearGradient id="teal" x1="16" y1="16" x2="108" y2="112" gradientUnits="userSpaceOnUse"><stop stop-color="#83aaa0"/><stop offset=".55" stop-color="#4f827a"/><stop offset="1" stop-color="#244d52"/></linearGradient><linearGradient id="blue" x1="18" y1="16" x2="108" y2="112" gradientUnits="userSpaceOnUse"><stop stop-color="#7891b7"/><stop offset=".56" stop-color="#496c9a"/><stop offset="1" stop-color="#1e2d55"/></linearGradient><linearGradient id="gold" x1="20" y1="16" x2="108" y2="112" gradientUnits="userSpaceOnUse"><stop stop-color="#f0c763"/><stop offset=".55" stop-color="#be8434"/><stop offset="1" stop-color="#6e421e"/></linearGradient></defs><g filter="url(#depth)"><path d="M28 35h72c9 0 16 7 16 16v34c0 9-7 16-16 16H65l-19 12V101H28c-9 0-16-7-16-16V51c0-9 7-16 16-16z" fill="url(#paper)"/><path d="M27 52h74" stroke="url(#ink)" stroke-width="7" stroke-linecap="round" opacity=".86"/><path d="M30 76h19l10-21 16 42 12-27h19" fill="none" stroke="url(#coral)" stroke-width="8" stroke-linecap="round" stroke-linejoin="round"/><circle cx="99" cy="51" r="6" fill="url(#gold)"/></g></svg>