<svg xmlns="http://www.w3.org/2000/svg" viewBox="0 0 128 128" role="img" aria-label="Nerve icon"><defs><filter id="d" x="-35%" y="-35%" width="170%" height="170%"><feDropShadow dx="0" dy="10" stdDeviation="6" flood-color="#2b211d" flood-opacity=".18"/><feDropShadow dx="0" dy="1" stdDeviation="1" flood-color="#fffaf4" flood-opacity=".48"/></filter><linearGradient id="cream" x1="18" y1="18" x2="108" y2="114"><stop stop-color="#fff8ef"/><stop offset="1" stop-color="#e4d7c6"/></linearGradient><linearGradient id="ink" x1="18" y1="14" x2="108" y2="116"><stop stop-color="#34333b"/><stop offset="1" stop-color="#090b11"/></linearGradient><linearGradient id="clay" x1="18" y1="18" x2="108" y2="114"><stop stop-color="#e7a28d"/><stop offset=".55" stop-color="#bd7059"/><stop offset="1" stop-color="#76473a"/></linearGradient><linearGradient id="gold" x1="20" y1="16" x2="108" y2="112"><stop stop-color="#efc868"/><stop offset=".58" stop-color="#bd8337"/><stop offset="1" stop-color="#6d4522"/></linearGradient></defs><g filter="url(#d)"><path d="M27 36h73c9 0 16 7 16 16v32c0 9-7 16-16 16H66l-20 13v-13H27c-9 0-16-7-16-16V52c0-9 7-16 16-16z" fill="url(#cream)"/><path d="M28 53h73" stroke="url(#ink)" stroke-width="7" stroke-linecap="round" opacity=".82"/><path d="M30 77h19l10-21 16 41 12-27h19" fill="none" stroke="url(#clay)" stroke-width="8" stroke-linecap="round" stroke-linejoin="round"/><circle cx="99" cy="52" r="6" fill="url(#gold)"/></g></svg>
