<svg xmlns="http://www.w3.org/2000/svg" viewBox="0 0 128 128" role="img" aria-label="Ocean">
  <rect width="128" height="128" rx="28" fill="#ffd8c8"/>
  <path d="M18 82c16-31 39-45 66-35 19 7 29 25 24 45-9-12-23-17-37-8-16 10-35 13-53-2Z" fill="#2f9d98" stroke="#261712" stroke-width="7" stroke-linejoin="round"/>
  <path d="M71 49c15 9 20 23 14 39 13-6 20-18 20-33" fill="none" stroke="#fffaf6" stroke-width="8" stroke-linecap="round"/>
  <path d="M25 93c22 12 54 12 81-1" fill="none" stroke="#fffaf6" stroke-width="7" stroke-linecap="round"/>
  <circle cx="86" cy="62" r="5" fill="#fffaf6"/>
  <circle cx="97" cy="71" r="4" fill="#f4bd52"/>
  <path d="M31 58c13 9 26 9 38 0" fill="none" stroke="#261712" stroke-width="5" stroke-linecap="round" opacity=".7"/>
</svg>
