<svg xmlns="http://www.w3.org/2000/svg" viewBox="0 0 128 128" role="img" aria-label="Paper icon">
  <defs>
    <radialGradient id="tile" cx="70%" cy="12%" r="94%">
      <stop offset="0" stop-color="#222736"/>
      <stop offset="0.42" stop-color="#10131b"/>
      <stop offset="1" stop-color="#040509"/>
    </radialGradient>
    <linearGradient id="ivory" x1="0" y1="0" x2="1" y2="1">
      <stop offset="0" stop-color="#fff8ea"/>
      <stop offset="0.6" stop-color="#e2dbcf"/>
      <stop offset="1" stop-color="#949bad"/>
    </linearGradient>
    <linearGradient id="warm" x1="0" y1="0" x2="1" y2="1">
      <stop offset="0" stop-color="#d84d6b"/>
      <stop offset="0.5" stop-color="#ee8d64"/>
      <stop offset="1" stop-color="#e9c268"/>
    </linearGradient>
    <linearGradient id="aqua" x1="0" y1="0" x2="1" y2="1">
      <stop offset="0" stop-color="#9cf5ec"/>
      <stop offset="1" stop-color="#13b7af"/>
    </linearGradient>
    <linearGradient id="blue" x1="0" y1="0" x2="1" y2="1">
      <stop offset="0" stop-color="#c4c7ff"/>
      <stop offset="1" stop-color="#7187ff"/>
    </linearGradient>
    <filter id="shade" x="-25%" y="-25%" width="150%" height="150%">
      <feDropShadow dx="0" dy="7" stdDeviation="6" flood-color="#000" flood-opacity=".34"/>
    </filter>
  </defs>
  <rect width="128" height="128" rx="18" fill="url(#tile)"/>
  <path d="M16 18c22-6 72-7 96 3v89c-23 6-76 6-96-2Z" fill="#090b11" opacity=".18"/>
    <path d="M36 24h41l15 15v66H36Z" fill="url(#ivory)" filter="url(#shade)"/>
    <path d="M77 24v16h15Z" fill="#aeb6c7" />
    <rect x="49" y="50" width="33" height="5" rx="0" fill="#151821" opacity=".66"/>  <rect x="49" y="64" width="38" height="5" rx="0" fill="#151821" opacity=".45"/>
    <path d="M48 89c17-16 34-16 51 0" fill="none" stroke="url(#aqua)" stroke-width="6" stroke-linecap="butt" stroke-linejoin="miter" />
</svg>
