<svg xmlns="http://www.w3.org/2000/svg" viewBox="0 0 512 512" role="img" aria-label="Talk icon">
  <rect x="24" y="24" width="464" height="464" rx="116" fill="#f8ded8"/>
  <rect x="34" y="34" width="444" height="444" rx="106" fill="none" stroke="#e99c8e" stroke-width="18"/>
  <path d="M144 235c0-88 49-151 118-151 71 0 118 63 118 151v48c0 77-47 129-118 129-70 0-118-52-118-129v-48z" fill="#f4c1a2"/>
  <path d="M136 219c13-81 60-135 129-135 60 0 103 34 121 99-37-18-73-24-109-18-44 7-82 29-141 54z" fill="#3a2722"/>
  <path d="M157 169c23-48 62-75 111-75 53 0 89 25 110 75-38-25-82-32-132-21-32 7-60 18-89 21z" fill="#2b1d19"/>
  <circle cx="143" cy="268" r="27" fill="#efb391"/>
  <circle cx="381" cy="268" r="27" fill="#efb391"/>
  <rect x="178" y="236" width="82" height="56" rx="24" fill="none" stroke="#2d2524" stroke-width="14"/>
  <rect x="272" y="236" width="82" height="56" rx="24" fill="none" stroke="#2d2524" stroke-width="14"/>
  <path d="M259 263h17" stroke="#2d2524" stroke-width="12" stroke-linecap="round"/>
  <circle cx="218" cy="263" r="7" fill="#2d2524"/>
  <circle cx="314" cy="263" r="7" fill="#2d2524"/>
  <path d="M226 331c21 13 50 13 72 0" fill="none" stroke="#8d5f53" stroke-width="13" stroke-linecap="round"/>
  <path d="M176 417c26 28 61 42 86 42 29 0 61-16 86-42-19-25-50-39-86-39-36 0-67 14-86 39z" fill="#c8796d"/>
  <path d="M343 341h78c28 0 51 22 51 49s-23 49-51 49h-41l-42 31 11-38c-33-8-55-30-55-59 0-18 19-32 49-32z" fill="#fffaf8" stroke="#e99c8e" stroke-width="14" stroke-linejoin="round"/>
  <circle cx="372" cy="391" r="8" fill="#e48b7c"/>
  <circle cx="406" cy="391" r="8" fill="#e48b7c"/>
  <circle cx="440" cy="391" r="8" fill="#e48b7c"/>
</svg>
