<svg xmlns="http://www.w3.org/2000/svg" viewBox="0 0 128 128" role="img" aria-label="Talk">
  <rect width="128" height="128" rx="30" fill="#ffd8c8"/>
  <circle cx="62" cy="58" r="29" fill="#f4b08f" stroke="#251713" stroke-width="7"/>
  <path d="M34 50c9-26 50-34 63 5-22-10-41-8-63-5Z" fill="#251713"/>
  <rect x="42" y="57" width="20" height="15" rx="7" fill="none" stroke="#251713" stroke-width="5"/>
  <rect x="68" y="57" width="20" height="15" rx="7" fill="none" stroke="#251713" stroke-width="5"/>
  <path d="M62 65h6M54 84c10 6 20 6 30 0" stroke="#251713" stroke-width="5" stroke-linecap="round"/>
  <path d="M75 85h31c10 0 18 8 18 18s-8 18-18 18H92l-16 10 4-13c-12-3-20-11-20-22 0-6 6-11 15-11Z" fill="#fffaf6" stroke="#c9796e" stroke-width="6" stroke-linejoin="round"/>
  <circle cx="88" cy="103" r="3.5" fill="#c9796e"/>
  <circle cx="100" cy="103" r="3.5" fill="#c9796e"/>
  <circle cx="112" cy="103" r="3.5" fill="#c9796e"/>
</svg>
