<svg xmlns="http://www.w3.org/2000/svg" viewBox="0 0 128 128" role="img" aria-label="Talk">
  <rect width="128" height="128" rx="28" fill="#ffd8c8"/>
  <circle cx="56" cy="58" r="29" fill="#f3ad8d" stroke="#261712" stroke-width="7"/>
  <path d="M31 51c8-28 50-36 62 2-19-10-39-11-62-2Z" fill="#261712"/>
  <rect x="37" y="58" width="19" height="14" rx="6" fill="none" stroke="#261712" stroke-width="5"/>
  <rect x="62" y="58" width="19" height="14" rx="6" fill="none" stroke="#261712" stroke-width="5"/>
  <path d="M56 65h6M48 83c8 5 18 5 27 0" stroke="#261712" stroke-width="5" stroke-linecap="round"/>
  <path d="M70 79h32c12 0 20 8 20 18s-8 18-20 18H91l-16 10 4-13c-11-3-18-11-18-22 0-6 4-11 9-11Z" fill="#fffaf6" stroke="#c9796e" stroke-width="6" stroke-linejoin="round"/>
  <circle cx="84" cy="97" r="3.5" fill="#c9796e"/>
  <circle cx="96" cy="97" r="3.5" fill="#c9796e"/>
  <circle cx="108" cy="97" r="3.5" fill="#c9796e"/>
</svg>
